Coordinates
version=1
nRows=14
nColumns=33
inDegrees=yes

Units are S.I. units (second, meters, Newtons, ...)
Angles are in degrees.

endheader
time	ground_thorax_rot_x	ground_thorax_rot_y	ground_thorax_rot_z	ground_thorax_tx	ground_thorax_ty	ground_thorax_tz	clav_prot_r	clav_elev_r	scapula_abduction_r	scapula_elevation_r	scapula_upward_rot_r	scapula_winging_r	shoulder_elv_r	plane_of_elev_r	axial_rot_r	elbow_flexion_r	pro_sup_r	wrist_flex_r	wrist_dev_r	clav_prot_l	clav_elev_l	scapula_abduction_l	scapula_elevation_l	scapula_upward_rot_l	scapula_winging_l	shoulder_elv_l	plane_of_elev_l	axial_rot_l	elbow_flexion_l	pro_sup_l	wrist_flex_l	wrist_dev_l
      9.55000000	     25.72846289	     29.69421808	     45.10556474	    -84.21595486	    846.60477399	    -44.80449451	     13.03153706	     34.18959966	     28.19106057	     45.00000000	    -45.00000000	   2430.88219993	   -646.29621453	     21.83683891	   -163.13894130	   1438.14790668	   -199.82920553	     16.23797778	     14.78421149	     -6.76978720	    -45.00000000	    -40.57724694	     45.00000000	    -45.00000000	   4785.37814854	  -5320.19909110	     26.42423759	     31.22720429	    -11.11525483	    397.18772296	     14.71665424	    -20.70042853
      9.56000000	     25.65107179	     29.77340922	     45.30565081	    -82.65551103	    846.31217308	    -44.77756481	     13.08332632	     34.15349659	     28.22718816	     45.00000000	    -45.00000000	   2431.00099661	   -646.26315955	     21.85071857	   -163.30650517	   1438.10064077	   -199.61927082	     16.13869657	     14.87677764	     -6.73444911	    -45.00000000	    -40.56767297	     45.00000000	    -45.00000000	   4785.33042163	  -5320.24465821	     26.46715881	     31.41083745	    -11.14942994	    397.28883073	     14.76588850	    -20.58986326
      9.57000000	     25.53566616	     29.86880962	     45.53321058	    -81.07456331	    845.99424047	    -44.75482276	     13.10772050	     34.19097284	     28.25178375	     45.00000000	    -45.00000000	   2431.08473413	   -646.29835741	     21.90882812	   -163.53768577	   1438.09115491	   -199.40707559	     16.03634033	     14.93293697	     -6.80220737	    -45.00000000	    -40.56424241	     45.00000000	    -45.00000000	   4785.24481151	  -5320.24146750	     26.47499550	     31.60023451	    -11.15076731	    397.38842956	     14.79275397	    -20.47873375
      9.58000000	     25.46217143	     29.95091505	     45.72047499	    -79.46630957	    845.64978939	    -44.73681743	     13.13956993	     34.22457742	     28.34544841	     45.00000000	    -45.00000000	   2431.15621795	   -646.35957425	     21.93585617	   -163.77145865	   1438.09777442	   -199.17240806	     15.94780763	     14.95752201	     -6.85729698	    -45.00000000	    -40.53796416	     45.00000000	    -45.00000000	   4785.16944494	  -5320.27508307	     26.50882631	     31.80312838	    -11.15103253	    397.49943901	     14.82228401	    -20.38407493
      9.59000000	     25.39113141	     30.02693524	     45.90311599	    -77.83093232	    845.27911646	    -44.72458056	     13.15674040	     34.25560551	     28.45286925	     45.00000000	    -45.00000000	   2431.22738178	   -646.43791114	     21.95605185	   -164.00677736	   1438.09922379	   -198.90545706	     15.86006955	     14.98266398	     -6.91559480	    -45.00000000	    -40.50266287	     45.00000000	    -45.00000000	   4785.09515466	  -5320.30571616	     26.54297803	     32.00809340	    -11.14810883	    397.62775652	     14.84928800	    -20.29289243
      9.60000000	     25.32019771	     30.10933639	     46.09363854	    -76.16915394	    844.88255874	    -44.71998626	     13.17699280	     34.28887820	     28.55843130	     45.00000000	    -45.00000000	   2431.29882580	   -646.51323692	     21.97705178	   -164.25418102	   1438.09633276	   -198.60593670	     15.77419884	     15.00128316	     -6.97853987	    -45.00000000	    -40.46467536	     45.00000000	    -45.00000000	   4785.02241460	  -5320.34070871	     26.57334189	     32.21654189	    -11.14495326	    397.77887435	     14.87082576	    -20.20559714
      9.61000000	     25.25937186	     30.18202761	     46.27509893	    -74.48531744	    844.46097274	    -44.72512359	     13.19345870	     34.29723586	     28.63126676	     45.00000000	    -45.00000000	   2431.38488885	   -646.56075108	     22.02290417	   -164.49313375	   1438.04062191	   -198.27872634	     15.69171772	     15.04127508	     -7.01083410	    -45.00000000	    -40.41506093	     45.00000000	    -45.00000000	   4784.95543137	  -5320.37613916	     26.61779444	     32.40923082	    -11.13252137	    397.95333496	     14.89187340	    -20.12358645
      9.62000000	     25.17214149	     30.28782889	     46.48681855	    -72.76451884	    844.00969286	    -44.74191729	     13.25572883	     34.32966331	     28.66646139	     45.00000000	    -45.00000000	   2431.46752927	   -646.61309731	     22.07166799	   -164.73824004	   1438.02165636	   -197.92618022	     15.60006754	     15.05100439	     -7.10078431	    -45.00000000	    -40.37166943	     45.00000000	    -45.00000000	   4784.87258512	  -5320.40414436	     26.62703133	     32.60302611	    -11.13189088	    398.15997675	     14.89787850	    -20.03267960
      9.63000000	     25.09989212	     30.38513661	     46.68439423	    -71.02133343	    843.53066536	    -44.77101222	     13.24153573	     34.35329265	     28.73210840	     45.00000000	    -45.00000000	   2431.56822944	   -646.68193822	     22.11069585	   -165.02193744	   1438.03263070	   -197.55122675	     15.51055526	     15.06212095	     -7.14903367	    -45.00000000	    -40.34791722	     45.00000000	    -45.00000000	   4784.79694209	  -5320.45476101	     26.66084958	     32.80149156	    -11.13674250	    398.39705394	     14.90560324	    -19.96141055
      9.64000000	     25.00937496	     30.50008297	     46.92023586	    -69.24992287	    843.01945679	    -44.81149627	     13.28278919	     34.36055922	     28.74019329	     45.00000000	    -45.00000000	   2431.66749739	   -646.71413582	     22.15907571	   -165.29501103	   1437.97220099	   -197.16047308	     15.42600768	     15.08167162	     -7.20785513	    -45.00000000	    -40.30258614	     45.00000000	    -45.00000000	   4784.71336542	  -5320.49457403	     26.68273671	     32.98905333	    -11.11553355	    398.65633905	     14.90380316	    -19.88528957
      9.65000000	     24.92143635	     30.64704674	     47.13246802	    -67.44752480	    842.47125476	    -44.86076437	     13.28409423	     34.38418000	     28.75731935	     45.00000000	    -45.00000000	   2431.76504826	   -646.77475335	     22.19610591	   -165.57965862	   1437.97518127	   -196.75665743	     15.33438240	     15.08742172	     -7.27537571	    -45.00000000	    -40.26887131	     45.00000000	    -45.00000000	   4784.62519619	  -5320.55004411	     26.71591391	     33.17237129	    -11.11257649	    398.94492068	     14.89902108	    -19.81872710
      9.66000000	     24.85481152	     30.75473396	     47.35117410	    -65.61993282	    841.88257919	    -44.91486211	     13.31955700	     34.42734100	     28.83456224	     45.00000000	    -45.00000000	   2431.86296009	   -646.85513311	     22.23068151	   -165.85870822	   1437.98908936	   -196.33595885	     15.25091978	     15.07622079	     -7.37479825	    -45.00000000	    -40.21349165	     45.00000000	    -45.00000000	   4784.53692049	  -5320.60374064	     26.74308181	     33.37668608	    -11.10491647	    399.25687012	     14.89141959	    -19.76040953
      9.67000000	     24.76045997	     30.86461865	     47.58495946	    -63.76708380	    841.24769645	    -44.96960556	     13.35602253	     34.44158774	     28.83755593	     45.00000000	    -45.00000000	   2431.96908754	   -646.89412973	     22.29156486	   -166.12448634	   1437.95281605	   -195.90958352	     15.16560046	     15.08362890	     -7.45260243	    -45.00000000	    -40.17298484	     45.00000000	    -45.00000000	   4784.44368047	  -5320.65368909	     26.77519707	     33.54324823	    -11.08897656	    399.58158535	     14.87813919	    -19.69290582
      9.68000000	     24.56635802	     31.08808188	     47.96649665	    -61.89318966	    840.56192504	    -45.02109467	     13.44584378	     34.45655959	     28.71179347	     45.00000000	    -45.00000000	   2432.08430697	   -646.92375519	     22.33350140	   -166.44406055	   1437.89011973	   -195.51859910	     15.07097317	     15.02455673	     -7.58401598	    -45.00000000	    -40.14170056	     45.00000000	    -45.00000000	   4784.32905807	  -5320.66067580	     26.72558800	     33.68775939	    -11.06753067	    399.90594194	     14.83170994	    -19.56988414
